<?xml version="1.0" encoding="UTF-8"?>
<svg id="Calque_2" data-name="Calque 2" xmlns="http://www.w3.org/2000/svg" viewBox="0 0 100.7 34.32">
  <defs>
    <style>
      .cls-1 {
        fill: #1d1d1b;
      }
    </style>
  </defs>
  <g id="Calque_1-2" data-name="Calque 1">
    <g>
      <path class="cls-1" d="M0,0h5.04v28.9h14.3v4.7H0V0Z"/>
      <path class="cls-1" d="M27.6,32.66c-1.86-1.1-3.3-2.63-4.34-4.58-1.04-1.95-1.56-4.18-1.56-6.67s.52-4.67,1.56-6.62c1.04-1.95,2.49-3.48,4.34-4.58,1.86-1.1,3.94-1.66,6.24-1.66s4.42.55,6.26,1.66c1.84,1.1,3.28,2.63,4.32,4.58,1.04,1.95,1.56,4.16,1.56,6.62s-.52,4.72-1.56,6.67c-1.04,1.95-2.48,3.48-4.32,4.58-1.84,1.1-3.93,1.66-6.26,1.66s-4.38-.55-6.24-1.66ZM37.61,29.28c1.1-.7,1.95-1.73,2.54-3.07.59-1.34.89-2.94.89-4.8s-.3-3.46-.89-4.8c-.59-1.34-1.44-2.36-2.54-3.05-1.1-.69-2.36-1.03-3.77-1.03s-2.66.34-3.74,1.03c-1.09.69-1.94,1.7-2.54,3.05-.61,1.34-.91,2.94-.91,4.8s.3,3.46.91,4.8c.61,1.34,1.46,2.37,2.54,3.07,1.09.7,2.34,1.06,3.74,1.06s2.66-.35,3.77-1.06Z"/>
      <path class="cls-1" d="M55.32,33.26c-1.23-.7-2.17-1.72-2.81-3.05-.64-1.33-.96-2.94-.96-4.82V9.26h4.8v15.55c0,1.82.37,3.18,1.1,4.08.74.9,1.82,1.34,3.26,1.34.99,0,1.94-.26,2.83-.77.9-.51,1.62-1.32,2.18-2.42.56-1.1.84-2.47.84-4.1v-13.68h4.85v24.34h-4.75v-3.26c-.67,1.34-1.62,2.34-2.83,3-1.22.66-2.59.98-4.13.98-1.7,0-3.16-.35-4.39-1.06Z"/>
      <path class="cls-1" d="M82.61,32.74c-1.63-1.06-2.92-2.56-3.86-4.51-.94-1.95-1.42-4.22-1.42-6.82s.47-4.9,1.42-6.84c.94-1.94,2.23-3.42,3.86-4.46,1.63-1.04,3.49-1.56,5.57-1.56,1.79,0,3.34.36,4.63,1.08,1.3.72,2.31,1.7,3.05,2.95V0h4.85v33.6h-4.85v-3.31c-.74,1.25-1.75,2.23-3.05,2.95-1.3.72-2.84,1.08-4.63,1.08-2.08,0-3.94-.53-5.57-1.58ZM92.59,29.21c1.06-.78,1.88-1.86,2.47-3.22.59-1.36.89-2.89.89-4.58s-.3-3.22-.89-4.58c-.59-1.36-1.42-2.42-2.47-3.19-1.06-.77-2.26-1.15-3.6-1.15s-2.57.36-3.58,1.08c-1.01.72-1.78,1.75-2.33,3.1-.54,1.34-.82,2.93-.82,4.75,0,2.72.6,4.9,1.8,6.53s2.84,2.45,4.92,2.45c1.34,0,2.54-.39,3.6-1.18Z"/>
    </g>
  </g>
</svg>