<?xml version="1.0" encoding="UTF-8"?>
<svg id="Calque_2" data-name="Calque 2" xmlns="http://www.w3.org/2000/svg" viewBox="0 0 155.18 35.04">
  <defs>
    <style>
      .cls-1 {
        fill: #1d1d1b;
      }
    </style>
  </defs>
  <g id="Calque_1-2" data-name="Calque 1">
    <g>
      <path class="cls-1" d="M6.99,33.65c-2.04-.93-3.66-2.23-4.84-3.91-1.19-1.68-1.9-3.61-2.15-5.78h5.19c.41,2.14,1.37,3.81,2.9,4.99,1.53,1.18,3.56,1.78,6.08,1.78,1.59,0,2.98-.24,4.16-.72,1.19-.48,2.11-1.14,2.76-1.99.65-.85.98-1.8.98-2.86,0-1.31-.5-2.36-1.5-3.14-1-.78-2.76-1.48-5.29-2.09l-4.16-1.01c-3.49-.86-6.05-2.01-7.67-3.43-1.62-1.42-2.43-3.37-2.43-5.83,0-1.82.55-3.47,1.64-4.94,1.09-1.47,2.56-2.62,4.42-3.46,1.86-.83,3.94-1.25,6.25-1.25,2.46,0,4.62.39,6.46,1.18,1.84.78,3.31,1.86,4.4,3.22,1.09,1.36,1.79,2.87,2.11,4.54h-5.05c-.44-1.47-1.33-2.63-2.69-3.48-1.36-.85-3.11-1.27-5.26-1.27-1.37,0-2.61.22-3.72.65-1.11.43-1.97,1.05-2.6,1.85-.62.8-.94,1.71-.94,2.74,0,.86.2,1.57.61,2.11.41.54,1.06,1.01,1.96,1.39.9.38,2.17.78,3.79,1.2l3.98,1.06c3.87.99,6.64,2.21,8.33,3.65s2.53,3.33,2.53,5.66c0,2.02-.56,3.82-1.68,5.42-1.12,1.6-2.68,2.86-4.68,3.77-2,.91-4.27,1.37-6.83,1.37s-5-.46-7.04-1.39Z"/>
      <path class="cls-1" d="M36.91,33.38c-1.81-1.1-3.22-2.63-4.23-4.58-1.01-1.95-1.52-4.18-1.52-6.67s.51-4.67,1.52-6.62c1.01-1.95,2.42-3.48,4.23-4.58,1.81-1.1,3.84-1.66,6.08-1.66s4.31.55,6.1,1.66c1.79,1.1,3.2,2.63,4.21,4.58,1.01,1.95,1.52,4.16,1.52,6.62s-.51,4.72-1.52,6.67c-1.01,1.95-2.42,3.48-4.21,4.58-1.79,1.1-3.83,1.66-6.1,1.66s-4.27-.55-6.08-1.66ZM46.66,30c1.08-.7,1.9-1.73,2.48-3.07.58-1.34.87-2.94.87-4.8s-.29-3.46-.87-4.8c-.58-1.34-1.4-2.36-2.48-3.05-1.08-.69-2.3-1.03-3.67-1.03s-2.59.34-3.65,1.03c-1.06.69-1.89,1.7-2.48,3.05-.59,1.34-.89,2.94-.89,4.8s.3,3.46.89,4.8c.59,1.34,1.42,2.37,2.48,3.07,1.06.7,2.28,1.06,3.65,1.06s2.6-.35,3.67-1.06Z"/>
      <path class="cls-1" d="M63.93,33.98c-1.2-.7-2.11-1.72-2.74-3.05-.62-1.33-.94-2.94-.94-4.82V9.98h4.68v15.55c0,1.82.36,3.18,1.08,4.08.72.9,1.78,1.34,3.18,1.34.97,0,1.89-.26,2.76-.77.87-.51,1.58-1.32,2.13-2.42.55-1.1.82-2.47.82-4.1v-13.68h4.72v24.34h-4.63v-3.26c-.65,1.34-1.58,2.34-2.76,3-1.19.66-2.53.98-4.02.98-1.65,0-3.08-.35-4.28-1.06Z"/>
      <path class="cls-1" d="M87.01,9.98h4.63v3.22c.78-1.25,1.79-2.22,3.02-2.9,1.23-.69,2.61-1.03,4.14-1.03s2.99.34,4.19,1.01c1.2.67,2.14,1.66,2.83,2.98.69,1.31,1.03,2.91,1.03,4.8v16.27h-4.72v-15.79c0-1.06-.16-1.98-.49-2.76-.33-.78-.82-1.39-1.47-1.82s-1.48-.65-2.48-.65c-1.09,0-2.08.26-2.97.79-.89.53-1.61,1.35-2.15,2.47-.55,1.12-.82,2.51-.82,4.18v13.58h-4.72V9.98Z"/>
      <path class="cls-1" d="M117.47,33.46c-1.59-1.06-2.85-2.56-3.77-4.51-.92-1.95-1.38-4.22-1.38-6.82s.46-4.9,1.38-6.84c.92-1.94,2.18-3.42,3.77-4.46,1.59-1.04,3.4-1.56,5.43-1.56,1.75,0,3.25.36,4.51,1.08,1.26.72,2.25,1.7,2.97,2.95V.72h4.73v33.6h-4.73v-3.31c-.72,1.25-1.71,2.23-2.97,2.95-1.26.72-2.77,1.08-4.51,1.08-2.03,0-3.84-.53-5.43-1.58ZM127.2,29.93c1.03-.78,1.83-1.86,2.41-3.22.58-1.36.87-2.89.87-4.58s-.29-3.22-.87-4.58c-.58-1.36-1.38-2.42-2.41-3.19-1.03-.77-2.2-1.15-3.51-1.15s-2.5.36-3.49,1.08c-.98.72-1.74,1.75-2.27,3.1-.53,1.34-.8,2.93-.8,4.75,0,2.72.58,4.9,1.75,6.53,1.17,1.63,2.77,2.45,4.79,2.45,1.31,0,2.48-.39,3.51-1.18Z"/>
    </g>
    <text/>
  </g>
</svg>